<svg version="1.1" xmlns="http://www.w3.org/2000/svg" xmlns:xlink="http://www.w3.org/1999/xlink" width="48" height="48"><defs><linearGradient x1="11.11385" y1="9.82526" x2="49.61405" y2="50.9027" gradientUnits="userSpaceOnUse" id="color-1"><stop offset="0" stop-color="#000000" stop-opacity="0.3"></stop><stop offset="1" stop-color="#000000" stop-opacity="0"></stop></linearGradient><filter id="dropshadow-base"><feColorMatrix type="matrix" values="0 0 0 0 0  0 0 0 0 0  0 0 0 0 0  0 0 0 .8 0"></feColorMatrix> <feOffset dx="0" dy="1"></feOffset> <feGaussianBlur stdDeviation="1"></feGaussianBlur> <feComposite in="SourceGraphic"></feComposite></filter><filter id="dropshadow-banner" x="-10%" y="-10%" width="120%" height="130%"><feColorMatrix type="matrix" values="0 0 0 0 0  0 0 0 0 0  0 0 0 0 0  0 0 0 .4 0"></feColorMatrix> <feOffset dx="0" dy="1"></feOffset> <feGaussianBlur stdDeviation="0.5"></feGaussianBlur> <feComposite in="SourceGraphic"></feComposite></filter></defs><g fill="none" fill-rule="nonzero" stroke="none" stroke-width="none" stroke-linecap="butt" stroke-linejoin="miter" stroke-miterlimit="10" stroke-dasharray="" stroke-dashoffset="0" font-family="none" font-weight="none" font-size="none" text-anchor="none" style="mix-blend-mode: normal"><path d="M2,24c0,-12.15026 9.84974,-22 22,-22c12.15026,0 22,9.84974 22,22c0,12.15026 -9.84974,22 -22,22c-12.15026,0 -22,-9.84974 -22,-22z" id="base 1 5" fill="#383c45" stroke-width="1"></path><path d="M26.41902,36.72794v1.33206c0.47098,0.07555 0.95425,0.11478 1.44681,0.11478c0.00001,0 0.00002,0 0.00003,0zM11.11385,33.02031v-18.0406c0,-1.43036 1.14687,-2.57723 2.57723,-2.57723h1.28861v-2.57723h2.57723l2.57723,2.57723h7.73169v-2.57723h2.57723l12.72792,12.72792l0,0.22109l2.77529,2.77529c-0.79513,11.42722 -10.31696,20.45044 -21.94627,20.45044c-0.33398,0 -0.66622,-0.00744 -0.99657,-0.02217l-11.13419,-11.13419c-0.46737,-0.46737 -0.75539,-1.11299 -0.75539,-1.82333z" fill="url(#color-1)" stroke-width="1"></path><path d="M26.57723,25.28861h1.93292v3.63389l3.14422,1.81695l-0.96646,1.6752l-4.11068,-2.37105v-4.75499zM31.73169,18.84554h-18.0406v14.17476h6.01783c-0.5541,-1.17264 -0.86337,-2.48703 -0.86337,-3.86584c0,-4.98177 4.03853,-9.0203 9.0203,-9.0203c1.37882,0 2.6932,0.30927 3.86584,0.86337v-2.15199zM13.69108,35.59753c-1.43036,0 -2.57723,-1.15975 -2.57723,-2.57723v-18.0406c0,-1.43036 1.14687,-2.57723 2.57723,-2.57723h1.28861v-2.57723h2.57723v2.57723h10.30892v-2.57723h2.57723v2.57723h1.28861c1.42336,0 2.57723,1.15386 2.57723,2.57723v7.86055c1.59788,1.62365 2.57723,3.85296 2.57723,6.31421c0,4.98177 -4.03853,9.0203 -9.0203,9.0203c-2.46125,0 -4.69056,-0.97935 -6.31421,-2.57723h-7.86055zM27.86584,22.90468c-1.65754,0 -3.2472,0.65846 -4.41926,1.83052c-1.17206,1.17206 -1.83052,2.76172 -1.83052,4.41926c0,3.45349 2.79629,6.24978 6.24978,6.24978c1.65754,0 3.2472,-0.65846 4.41926,-1.83052c1.17206,-1.17206 1.83052,-2.76172 1.83052,-4.41926c0,-3.45349 -2.79629,-6.24978 -6.24978,-6.24978z" fill="none" stroke-width="0"></path><path d="M28.51015,25.28861v3.63389l3.14422,1.81695l-0.96646,1.6752l-4.11068,-2.37105v-4.75499zM13.69108,18.84554v14.17476h6.01783c-0.5541,-1.17264 -0.86337,-2.48703 -0.86337,-3.86584c0,-4.98177 4.03853,-9.0203 9.0203,-9.0203c1.37882,0 2.6932,0.30927 3.86584,0.86337v-2.15199zM11.11386,33.0203v-18.0406c0,-1.43036 1.14687,-2.57723 2.57723,-2.57723h1.28861v-2.57723h2.57723v2.57723h10.30892v-2.57723h2.57723v2.57723h1.28861c1.42336,0 2.57723,1.15386 2.57723,2.57723v7.86055c1.59788,1.62365 2.57723,3.85296 2.57723,6.31421c0,4.98177 -4.03853,9.0203 -9.0203,9.0203c-2.46125,0 -4.69056,-0.97935 -6.31421,-2.57723h-7.86055c-1.43036,0 -2.57723,-1.15975 -2.57723,-2.57723zM27.86584,22.90468c-1.65754,0 -3.2472,0.65846 -4.41926,1.83052c-1.17206,1.17206 -1.83052,2.76172 -1.83052,4.41926c0,3.45349 2.79629,6.24978 6.24978,6.24978c1.65754,0 3.2472,-0.65846 4.41926,-1.83052c1.17206,-1.17206 1.83052,-2.76172 1.83052,-4.41926c0,-3.45349 -2.79629,-6.24978 -6.24978,-6.24978z" fill="#f44336" stroke-width="0"></path><path d="M2,24c0,-12.15026 9.84974,-22 22,-22c12.15026,0 22,9.84974 22,22c0,12.15026 -9.84974,22 -22,22c-12.15026,0 -22,-9.84974 -22,-22z" id="base 1 1 1" fill="none" stroke-width="1"></path><g fill="#000000" stroke-width="1" font-family="Roboto, sans-serif" font-weight="400" font-size="14" text-anchor="start"></g><rect x="2" y="2" width="44" height="22" fill="none" stroke-width="1"></rect><path d="M2,24v-22h44v22z" fill="none" stroke-width="1"></path><path d="M2,24v-22h44v22z" fill="none" stroke-width="1"></path><path d="M2,24v-22h44v22z" fill="none" stroke-width="1"></path><path d="M2,24v-22h44v22z" fill="none" stroke-width="1"></path></g></svg>